<svg width="550" height="518" viewBox="0 0 550 518" fill="none" xmlns="http://www.w3.org/2000/svg">
<path d="M32.67 0.5H372.67L322.67 68.5H144.67L309.67 351.5L271.67 411.5L32.67 0.5Z" fill="#0B0B0B"/>
<path d="M292.67 250.5L330.67 315L521.67 0.5H441.67L292.67 250.5Z" fill="#0B0B0B"/>
<path d="M32.67 0.5H372.67L322.67 68.5H144.67L309.67 351.5L271.67 411.5L32.67 0.5Z" stroke="#0B0B0B"/>
<path d="M292.67 250.5L330.67 315L521.67 0.5H441.67L292.67 250.5Z" stroke="#0B0B0B"/>
<path d="M39.26 516L1.3357e-05 425H22.75L57.07 505.6H43.68L78.52 425H99.45L60.06 516H39.26ZM150.232 517.56C143.039 517.56 136.366 516.39 130.212 514.05C124.146 511.71 118.859 508.417 114.352 504.17C109.932 499.923 106.466 494.94 103.952 489.22C101.526 483.5 100.312 477.26 100.312 470.5C100.312 463.74 101.526 457.5 103.952 451.78C106.466 446.06 109.976 441.077 114.482 436.83C118.989 432.583 124.276 429.29 130.342 426.95C136.409 424.61 142.996 423.44 150.102 423.44C157.296 423.44 163.882 424.61 169.862 426.95C175.929 429.29 181.172 432.583 185.592 436.83C190.099 441.077 193.609 446.06 196.122 451.78C198.636 457.413 199.892 463.653 199.892 470.5C199.892 477.26 198.636 483.543 196.122 489.35C193.609 495.07 190.099 500.053 185.592 504.3C181.172 508.46 175.929 511.71 169.862 514.05C163.882 516.39 157.339 517.56 150.232 517.56ZM150.102 499.62C154.176 499.62 157.902 498.927 161.282 497.54C164.749 496.153 167.782 494.16 170.382 491.56C172.982 488.96 174.976 485.883 176.362 482.33C177.836 478.777 178.572 474.833 178.572 470.5C178.572 466.167 177.836 462.223 176.362 458.67C174.976 455.117 172.982 452.04 170.382 449.44C167.869 446.84 164.879 444.847 161.412 443.46C157.946 442.073 154.176 441.38 150.102 441.38C146.029 441.38 142.259 442.073 138.792 443.46C135.412 444.847 132.422 446.84 129.822 449.44C127.222 452.04 125.186 455.117 123.712 458.67C122.326 462.223 121.632 466.167 121.632 470.5C121.632 474.747 122.326 478.69 123.712 482.33C125.186 485.883 127.179 488.96 129.692 491.56C132.292 494.16 135.326 496.153 138.792 497.54C142.259 498.927 146.029 499.62 150.102 499.62ZM215.72 516V425H236.78V498.84H282.41V516H215.72ZM294.177 516V425H315.237V498.84H360.867V516H294.177ZM415.31 517.56C408.117 517.56 401.444 516.39 395.29 514.05C389.224 511.71 383.937 508.417 379.43 504.17C375.01 499.923 371.544 494.94 369.03 489.22C366.604 483.5 365.39 477.26 365.39 470.5C365.39 463.74 366.604 457.5 369.03 451.78C371.544 446.06 375.054 441.077 379.56 436.83C384.067 432.583 389.354 429.29 395.42 426.95C401.487 424.61 408.074 423.44 415.18 423.44C422.374 423.44 428.96 424.61 434.94 426.95C441.007 429.29 446.25 432.583 450.67 436.83C455.177 441.077 458.687 446.06 461.2 451.78C463.714 457.413 464.97 463.653 464.97 470.5C464.97 477.26 463.714 483.543 461.2 489.35C458.687 495.07 455.177 500.053 450.67 504.3C446.25 508.46 441.007 511.71 434.94 514.05C428.96 516.39 422.417 517.56 415.31 517.56ZM415.18 499.62C419.254 499.62 422.98 498.927 426.36 497.54C429.827 496.153 432.86 494.16 435.46 491.56C438.06 488.96 440.054 485.883 441.44 482.33C442.914 478.777 443.65 474.833 443.65 470.5C443.65 466.167 442.914 462.223 441.44 458.67C440.054 455.117 438.06 452.04 435.46 449.44C432.947 446.84 429.957 444.847 426.49 443.46C423.024 442.073 419.254 441.38 415.18 441.38C411.107 441.38 407.337 442.073 403.87 443.46C400.49 444.847 397.5 446.84 394.9 449.44C392.3 452.04 390.264 455.117 388.79 458.67C387.404 462.223 386.71 466.167 386.71 470.5C386.71 474.747 387.404 478.69 388.79 482.33C390.264 485.883 392.257 488.96 394.77 491.56C397.37 494.16 400.404 496.153 403.87 497.54C407.337 498.927 411.107 499.62 415.18 499.62ZM510.698 517.56C503.418 517.56 496.441 516.607 489.768 514.7C483.095 512.707 477.721 510.15 473.648 507.03L480.798 491.17C484.698 493.943 489.291 496.24 494.578 498.06C499.951 499.793 505.368 500.66 510.828 500.66C514.988 500.66 518.325 500.27 520.838 499.49C523.438 498.623 525.345 497.453 526.558 495.98C527.771 494.507 528.378 492.817 528.378 490.91C528.378 488.483 527.425 486.577 525.518 485.19C523.611 483.717 521.098 482.547 517.978 481.68C514.858 480.727 511.391 479.86 507.578 479.08C503.851 478.213 500.081 477.173 496.268 475.96C492.541 474.747 489.118 473.187 485.998 471.28C482.878 469.373 480.321 466.86 478.328 463.74C476.421 460.62 475.468 456.633 475.468 451.78C475.468 446.58 476.855 441.857 479.628 437.61C482.488 433.277 486.735 429.853 492.368 427.34C498.088 424.74 505.238 423.44 513.818 423.44C519.538 423.44 525.171 424.133 530.718 425.52C536.265 426.82 541.161 428.813 545.408 431.5L538.908 447.49C534.661 445.063 530.415 443.287 526.168 442.16C521.921 440.947 517.761 440.34 513.688 440.34C509.615 440.34 506.278 440.817 503.678 441.77C501.078 442.723 499.215 443.98 498.088 445.54C496.961 447.013 496.398 448.747 496.398 450.74C496.398 453.08 497.351 454.987 499.258 456.46C501.165 457.847 503.678 458.973 506.798 459.84C509.918 460.707 513.341 461.573 517.068 462.44C520.881 463.307 524.651 464.303 528.378 465.43C532.191 466.557 535.658 468.073 538.778 469.98C541.898 471.887 544.411 474.4 546.318 477.52C548.311 480.64 549.308 484.583 549.308 489.35C549.308 494.463 547.878 499.143 545.018 503.39C542.158 507.637 537.868 511.06 532.148 513.66C526.515 516.26 519.365 517.56 510.698 517.56Z" fill="#1A1A1A"/>
<path d="M409.551 2.0936L274.292 216.215L240.337 162.812L409.551 2.0936Z" fill="#D4AF37" stroke="#D4AF37" stroke-width="5"/>
<path d="M103.776 316.654L239.772 103L273.542 156.52L103.776 316.654Z" fill="#D4AF37" stroke="#D4AF37" stroke-width="5"/>
</svg>
