<svg width="550" height="554" viewBox="0 0 550 554" fill="none" xmlns="http://www.w3.org/2000/svg">
<path d="M32.67 0.5H372.67L322.67 68.5H144.67L309.67 351.5L271.67 411.5L32.67 0.5Z" fill="#0B0B0B"/>
<path d="M292.67 250.5L330.67 315L521.67 0.5H441.67L292.67 250.5Z" fill="#0B0B0B"/>
<path d="M32.67 0.5H372.67L322.67 68.5H144.67L309.67 351.5L271.67 411.5L32.67 0.5Z" stroke="#0B0B0B"/>
<path d="M292.67 250.5L330.67 315L521.67 0.5H441.67L292.67 250.5Z" stroke="#0B0B0B"/>
<path d="M39.26 516L1.3357e-05 425H22.75L57.07 505.6H43.68L78.52 425H99.45L60.06 516H39.26ZM150.232 517.56C143.039 517.56 136.366 516.39 130.212 514.05C124.146 511.71 118.859 508.417 114.352 504.17C109.932 499.923 106.466 494.94 103.952 489.22C101.526 483.5 100.312 477.26 100.312 470.5C100.312 463.74 101.526 457.5 103.952 451.78C106.466 446.06 109.976 441.077 114.482 436.83C118.989 432.583 124.276 429.29 130.342 426.95C136.409 424.61 142.996 423.44 150.102 423.44C157.296 423.44 163.882 424.61 169.862 426.95C175.929 429.29 181.172 432.583 185.592 436.83C190.099 441.077 193.609 446.06 196.122 451.78C198.636 457.413 199.892 463.653 199.892 470.5C199.892 477.26 198.636 483.543 196.122 489.35C193.609 495.07 190.099 500.053 185.592 504.3C181.172 508.46 175.929 511.71 169.862 514.05C163.882 516.39 157.339 517.56 150.232 517.56ZM150.102 499.62C154.176 499.62 157.902 498.927 161.282 497.54C164.749 496.153 167.782 494.16 170.382 491.56C172.982 488.96 174.976 485.883 176.362 482.33C177.836 478.777 178.572 474.833 178.572 470.5C178.572 466.167 177.836 462.223 176.362 458.67C174.976 455.117 172.982 452.04 170.382 449.44C167.869 446.84 164.879 444.847 161.412 443.46C157.946 442.073 154.176 441.38 150.102 441.38C146.029 441.38 142.259 442.073 138.792 443.46C135.412 444.847 132.422 446.84 129.822 449.44C127.222 452.04 125.186 455.117 123.712 458.67C122.326 462.223 121.632 466.167 121.632 470.5C121.632 474.747 122.326 478.69 123.712 482.33C125.186 485.883 127.179 488.96 129.692 491.56C132.292 494.16 135.326 496.153 138.792 497.54C142.259 498.927 146.029 499.62 150.102 499.62ZM215.72 516V425H236.78V498.84H282.41V516H215.72ZM294.177 516V425H315.237V498.84H360.867V516H294.177ZM415.31 517.56C408.117 517.56 401.444 516.39 395.29 514.05C389.224 511.71 383.937 508.417 379.43 504.17C375.01 499.923 371.544 494.94 369.03 489.22C366.604 483.5 365.39 477.26 365.39 470.5C365.39 463.74 366.604 457.5 369.03 451.78C371.544 446.06 375.054 441.077 379.56 436.83C384.067 432.583 389.354 429.29 395.42 426.95C401.487 424.61 408.074 423.44 415.18 423.44C422.374 423.44 428.96 424.61 434.94 426.95C441.007 429.29 446.25 432.583 450.67 436.83C455.177 441.077 458.687 446.06 461.2 451.78C463.714 457.413 464.97 463.653 464.97 470.5C464.97 477.26 463.714 483.543 461.2 489.35C458.687 495.07 455.177 500.053 450.67 504.3C446.25 508.46 441.007 511.71 434.94 514.05C428.96 516.39 422.417 517.56 415.31 517.56ZM415.18 499.62C419.254 499.62 422.98 498.927 426.36 497.54C429.827 496.153 432.86 494.16 435.46 491.56C438.06 488.96 440.054 485.883 441.44 482.33C442.914 478.777 443.65 474.833 443.65 470.5C443.65 466.167 442.914 462.223 441.44 458.67C440.054 455.117 438.06 452.04 435.46 449.44C432.947 446.84 429.957 444.847 426.49 443.46C423.024 442.073 419.254 441.38 415.18 441.38C411.107 441.38 407.337 442.073 403.87 443.46C400.49 444.847 397.5 446.84 394.9 449.44C392.3 452.04 390.264 455.117 388.79 458.67C387.404 462.223 386.71 466.167 386.71 470.5C386.71 474.747 387.404 478.69 388.79 482.33C390.264 485.883 392.257 488.96 394.77 491.56C397.37 494.16 400.404 496.153 403.87 497.54C407.337 498.927 411.107 499.62 415.18 499.62ZM510.698 517.56C503.418 517.56 496.441 516.607 489.768 514.7C483.095 512.707 477.721 510.15 473.648 507.03L480.798 491.17C484.698 493.943 489.291 496.24 494.578 498.06C499.951 499.793 505.368 500.66 510.828 500.66C514.988 500.66 518.325 500.27 520.838 499.49C523.438 498.623 525.345 497.453 526.558 495.98C527.771 494.507 528.378 492.817 528.378 490.91C528.378 488.483 527.425 486.577 525.518 485.19C523.611 483.717 521.098 482.547 517.978 481.68C514.858 480.727 511.391 479.86 507.578 479.08C503.851 478.213 500.081 477.173 496.268 475.96C492.541 474.747 489.118 473.187 485.998 471.28C482.878 469.373 480.321 466.86 478.328 463.74C476.421 460.62 475.468 456.633 475.468 451.78C475.468 446.58 476.855 441.857 479.628 437.61C482.488 433.277 486.735 429.853 492.368 427.34C498.088 424.74 505.238 423.44 513.818 423.44C519.538 423.44 525.171 424.133 530.718 425.52C536.265 426.82 541.161 428.813 545.408 431.5L538.908 447.49C534.661 445.063 530.415 443.287 526.168 442.16C521.921 440.947 517.761 440.34 513.688 440.34C509.615 440.34 506.278 440.817 503.678 441.77C501.078 442.723 499.215 443.98 498.088 445.54C496.961 447.013 496.398 448.747 496.398 450.74C496.398 453.08 497.351 454.987 499.258 456.46C501.165 457.847 503.678 458.973 506.798 459.84C509.918 460.707 513.341 461.573 517.068 462.44C520.881 463.307 524.651 464.303 528.378 465.43C532.191 466.557 535.658 468.073 538.778 469.98C541.898 471.887 544.411 474.4 546.318 477.52C548.311 480.64 549.308 484.583 549.308 489.35C549.308 494.463 547.878 499.143 545.018 503.39C542.158 507.637 537.868 511.06 532.148 513.66C526.515 516.26 519.365 517.56 510.698 517.56Z" fill="#1A1A1A"/>
<path d="M20.814 553L14.206 533.4H16.334L22.522 551.852H21.458L27.842 533.4H29.746L36.046 551.852H35.038L41.282 533.4H43.27L36.662 553H34.478L28.458 535.5H29.018L22.97 553H20.814ZM60.1632 538.16C61.3579 538.16 62.4032 538.393 63.2992 538.86C64.2139 539.308 64.9232 539.999 65.4272 540.932C65.9499 541.865 66.2112 543.041 66.2112 544.46V553H64.2232V544.656C64.2232 543.107 63.8312 541.94 63.0472 541.156C62.2819 540.353 61.1992 539.952 59.7992 539.952C58.7539 539.952 57.8392 540.167 57.0552 540.596C56.2899 541.007 55.6925 541.613 55.2632 542.416C54.8525 543.2 54.6472 544.152 54.6472 545.272V553H52.6592V532.224H54.6472V542.332L54.2552 541.576C54.7219 540.512 55.4685 539.681 56.4952 539.084C57.5219 538.468 58.7445 538.16 60.1632 538.16ZM83.4251 553.14C81.8944 553.14 80.5504 552.823 79.3931 552.188C78.2357 551.535 77.3304 550.648 76.6771 549.528C76.0237 548.389 75.6971 547.092 75.6971 545.636C75.6971 544.18 76.0051 542.892 76.6211 541.772C77.2557 540.652 78.1144 539.775 79.1971 539.14C80.2984 538.487 81.5304 538.16 82.8931 538.16C84.2744 538.16 85.4971 538.477 86.5611 539.112C87.6437 539.728 88.4931 540.605 89.1091 541.744C89.7251 542.864 90.0331 544.161 90.0331 545.636C90.0331 545.729 90.0237 545.832 90.0051 545.944C90.0051 546.037 90.0051 546.14 90.0051 546.252H77.2091V544.768H88.9411L88.1571 545.356C88.1571 544.292 87.9237 543.349 87.4571 542.528C87.0091 541.688 86.3931 541.035 85.6091 540.568C84.8251 540.101 83.9197 539.868 82.8931 539.868C81.8851 539.868 80.9797 540.101 80.1771 540.568C79.3744 541.035 78.7491 541.688 78.3011 542.528C77.8531 543.368 77.6291 544.329 77.6291 545.412V545.72C77.6291 546.84 77.8717 547.829 78.3571 548.688C78.8611 549.528 79.5517 550.191 80.4291 550.676C81.3251 551.143 82.3424 551.376 83.4811 551.376C84.3771 551.376 85.2077 551.217 85.9731 550.9C86.7571 550.583 87.4291 550.097 87.9891 549.444L89.1091 550.732C88.4557 551.516 87.6344 552.113 86.6451 552.524C85.6744 552.935 84.6011 553.14 83.4251 553.14ZM99.6795 553V538.3H101.584V542.304L101.388 541.604C101.798 540.484 102.489 539.635 103.46 539.056C104.43 538.459 105.634 538.16 107.072 538.16V540.092C106.997 540.092 106.922 540.092 106.848 540.092C106.773 540.073 106.698 540.064 106.624 540.064C105.074 540.064 103.861 540.54 102.984 541.492C102.106 542.425 101.668 543.76 101.668 545.496V553H99.6795ZM122.406 553.14C120.876 553.14 119.532 552.823 118.374 552.188C117.217 551.535 116.312 550.648 115.658 549.528C115.005 548.389 114.678 547.092 114.678 545.636C114.678 544.18 114.986 542.892 115.602 541.772C116.237 540.652 117.096 539.775 118.178 539.14C119.28 538.487 120.512 538.16 121.874 538.16C123.256 538.16 124.478 538.477 125.542 539.112C126.625 539.728 127.474 540.605 128.09 541.744C128.706 542.864 129.014 544.161 129.014 545.636C129.014 545.729 129.005 545.832 128.986 545.944C128.986 546.037 128.986 546.14 128.986 546.252H116.19V544.768H127.922L127.138 545.356C127.138 544.292 126.905 543.349 126.438 542.528C125.99 541.688 125.374 541.035 124.59 540.568C123.806 540.101 122.901 539.868 121.874 539.868C120.866 539.868 119.961 540.101 119.158 540.568C118.356 541.035 117.73 541.688 117.282 542.528C116.834 543.368 116.61 544.329 116.61 545.412V545.72C116.61 546.84 116.853 547.829 117.338 548.688C117.842 549.528 118.533 550.191 119.41 550.676C120.306 551.143 121.324 551.376 122.462 551.376C123.358 551.376 124.189 551.217 124.954 550.9C125.738 550.583 126.41 550.097 126.97 549.444L128.09 550.732C127.437 551.516 126.616 552.113 125.626 552.524C124.656 552.935 123.582 553.14 122.406 553.14ZM155.817 553V535.192H148.929V533.4H164.777V535.192H157.889V553H155.817ZM173.267 553V538.3H175.255V553H173.267ZM174.275 535.052C173.864 535.052 173.519 534.912 173.239 534.632C172.959 534.352 172.819 534.016 172.819 533.624C172.819 533.232 172.959 532.905 173.239 532.644C173.519 532.364 173.864 532.224 174.275 532.224C174.686 532.224 175.031 532.355 175.311 532.616C175.591 532.877 175.731 533.204 175.731 533.596C175.731 534.007 175.591 534.352 175.311 534.632C175.05 534.912 174.704 535.052 174.275 535.052ZM204.755 538.16C205.949 538.16 206.985 538.393 207.863 538.86C208.759 539.308 209.449 539.999 209.935 540.932C210.439 541.865 210.691 543.041 210.691 544.46V553H208.703V544.656C208.703 543.107 208.329 541.94 207.583 541.156C206.855 540.353 205.819 539.952 204.475 539.952C203.467 539.952 202.589 540.167 201.843 540.596C201.115 541.007 200.545 541.613 200.135 542.416C199.743 543.2 199.547 544.152 199.547 545.272V553H197.559V544.656C197.559 543.107 197.185 541.94 196.439 541.156C195.692 540.353 194.647 539.952 193.303 539.952C192.313 539.952 191.445 540.167 190.699 540.596C189.952 541.007 189.373 541.613 188.963 542.416C188.571 543.2 188.375 544.152 188.375 545.272V553H186.387V538.3H188.291V542.276L187.983 541.576C188.431 540.512 189.149 539.681 190.139 539.084C191.147 538.468 192.332 538.16 193.695 538.16C195.132 538.16 196.355 538.524 197.363 539.252C198.371 539.961 199.024 541.035 199.323 542.472L198.539 542.164C198.968 540.969 199.724 540.008 200.807 539.28C201.908 538.533 203.224 538.16 204.755 538.16ZM227.926 553.14C226.395 553.14 225.051 552.823 223.894 552.188C222.737 551.535 221.831 550.648 221.178 549.528C220.525 548.389 220.198 547.092 220.198 545.636C220.198 544.18 220.506 542.892 221.122 541.772C221.757 540.652 222.615 539.775 223.698 539.14C224.799 538.487 226.031 538.16 227.394 538.16C228.775 538.16 229.998 538.477 231.062 539.112C232.145 539.728 232.994 540.605 233.61 541.744C234.226 542.864 234.534 544.161 234.534 545.636C234.534 545.729 234.525 545.832 234.506 545.944C234.506 546.037 234.506 546.14 234.506 546.252H221.71V544.768H233.442L232.658 545.356C232.658 544.292 232.425 543.349 231.958 542.528C231.51 541.688 230.894 541.035 230.11 540.568C229.326 540.101 228.421 539.868 227.394 539.868C226.386 539.868 225.481 540.101 224.678 540.568C223.875 541.035 223.25 541.688 222.802 542.528C222.354 543.368 222.13 544.329 222.13 545.412V545.72C222.13 546.84 222.373 547.829 222.858 548.688C223.362 549.528 224.053 550.191 224.93 550.676C225.826 551.143 226.843 551.376 227.982 551.376C228.878 551.376 229.709 551.217 230.474 550.9C231.258 550.583 231.93 550.097 232.49 549.444L233.61 550.732C232.957 551.516 232.135 552.113 231.146 552.524C230.175 552.935 229.102 553.14 227.926 553.14ZM257.528 553V533.4H265.984C268.168 533.4 269.858 533.839 271.052 534.716C272.266 535.593 272.872 536.835 272.872 538.44C272.872 539.504 272.62 540.4 272.116 541.128C271.631 541.856 270.959 542.407 270.1 542.78C269.26 543.153 268.336 543.34 267.328 543.34L267.804 542.668C269.055 542.668 270.128 542.864 271.024 543.256C271.939 543.629 272.648 544.199 273.152 544.964C273.656 545.711 273.908 546.644 273.908 547.764C273.908 549.425 273.292 550.713 272.06 551.628C270.847 552.543 269.008 553 266.544 553H257.528ZM259.6 551.292H266.516C268.234 551.292 269.55 551.003 270.464 550.424C271.379 549.827 271.836 548.884 271.836 547.596C271.836 546.327 271.379 545.403 270.464 544.824C269.55 544.227 268.234 543.928 266.516 543.928H259.376V542.22H265.844C267.412 542.22 268.626 541.921 269.484 541.324C270.362 540.727 270.8 539.84 270.8 538.664C270.8 537.469 270.362 536.583 269.484 536.004C268.626 535.407 267.412 535.108 265.844 535.108H259.6V551.292ZM290.062 553.14C288.531 553.14 287.187 552.823 286.03 552.188C284.872 551.535 283.967 550.648 283.314 549.528C282.66 548.389 282.334 547.092 282.334 545.636C282.334 544.18 282.642 542.892 283.258 541.772C283.892 540.652 284.751 539.775 285.834 539.14C286.935 538.487 288.167 538.16 289.53 538.16C290.911 538.16 292.134 538.477 293.198 539.112C294.28 539.728 295.13 540.605 295.746 541.744C296.362 542.864 296.67 544.161 296.67 545.636C296.67 545.729 296.66 545.832 296.642 545.944C296.642 546.037 296.642 546.14 296.642 546.252H283.846V544.768H295.578L294.794 545.356C294.794 544.292 294.56 543.349 294.094 542.528C293.646 541.688 293.03 541.035 292.246 540.568C291.462 540.101 290.556 539.868 289.53 539.868C288.522 539.868 287.616 540.101 286.814 540.568C286.011 541.035 285.386 541.688 284.938 542.528C284.49 543.368 284.266 544.329 284.266 545.412V545.72C284.266 546.84 284.508 547.829 284.994 548.688C285.498 549.528 286.188 550.191 287.066 550.676C287.962 551.143 288.979 551.376 290.118 551.376C291.014 551.376 291.844 551.217 292.61 550.9C293.394 550.583 294.066 550.097 294.626 549.444L295.746 550.732C295.092 551.516 294.271 552.113 293.282 552.524C292.311 552.935 291.238 553.14 290.062 553.14ZM312.42 553.14C310.964 553.14 309.658 552.823 308.5 552.188C307.362 551.535 306.466 550.648 305.812 549.528C305.159 548.389 304.832 547.092 304.832 545.636C304.832 544.161 305.159 542.864 305.812 541.744C306.466 540.624 307.362 539.747 308.5 539.112C309.658 538.477 310.964 538.16 312.42 538.16C313.671 538.16 314.8 538.403 315.808 538.888C316.816 539.373 317.61 540.101 318.188 541.072L316.704 542.08C316.2 541.333 315.575 540.783 314.828 540.428C314.082 540.073 313.27 539.896 312.392 539.896C311.347 539.896 310.404 540.139 309.564 540.624C308.724 541.091 308.062 541.753 307.576 542.612C307.091 543.471 306.848 544.479 306.848 545.636C306.848 546.793 307.091 547.801 307.576 548.66C308.062 549.519 308.724 550.191 309.564 550.676C310.404 551.143 311.347 551.376 312.392 551.376C313.27 551.376 314.082 551.199 314.828 550.844C315.575 550.489 316.2 549.948 316.704 549.22L318.188 550.228C317.61 551.18 316.816 551.908 315.808 552.412C314.8 552.897 313.671 553.14 312.42 553.14ZM333.439 553.14C332.021 553.14 330.742 552.823 329.603 552.188C328.483 551.535 327.597 550.648 326.943 549.528C326.29 548.389 325.963 547.092 325.963 545.636C325.963 544.161 326.29 542.864 326.943 541.744C327.597 540.624 328.483 539.747 329.603 539.112C330.723 538.477 332.002 538.16 333.439 538.16C334.895 538.16 336.183 538.477 337.303 539.112C338.442 539.747 339.329 540.624 339.963 541.744C340.617 542.864 340.943 544.161 340.943 545.636C340.943 547.092 340.617 548.389 339.963 549.528C339.329 550.648 338.442 551.535 337.303 552.188C336.165 552.823 334.877 553.14 333.439 553.14ZM333.439 551.376C334.503 551.376 335.446 551.143 336.267 550.676C337.089 550.191 337.733 549.519 338.199 548.66C338.685 547.783 338.927 546.775 338.927 545.636C338.927 544.479 338.685 543.471 338.199 542.612C337.733 541.753 337.089 541.091 336.267 540.624C335.446 540.139 334.513 539.896 333.467 539.896C332.422 539.896 331.489 540.139 330.667 540.624C329.846 541.091 329.193 541.753 328.707 542.612C328.222 543.471 327.979 544.479 327.979 545.636C327.979 546.775 328.222 547.783 328.707 548.66C329.193 549.519 329.846 550.191 330.667 550.676C331.489 551.143 332.413 551.376 333.439 551.376ZM368.97 538.16C370.165 538.16 371.201 538.393 372.078 538.86C372.974 539.308 373.665 539.999 374.15 540.932C374.654 541.865 374.906 543.041 374.906 544.46V553H372.918V544.656C372.918 543.107 372.545 541.94 371.798 541.156C371.07 540.353 370.034 539.952 368.69 539.952C367.682 539.952 366.805 540.167 366.058 540.596C365.33 541.007 364.761 541.613 364.35 542.416C363.958 543.2 363.762 544.152 363.762 545.272V553H361.774V544.656C361.774 543.107 361.401 541.94 360.654 541.156C359.908 540.353 358.862 539.952 357.518 539.952C356.529 539.952 355.661 540.167 354.914 540.596C354.168 541.007 353.589 541.613 353.178 542.416C352.786 543.2 352.59 544.152 352.59 545.272V553H350.602V538.3H352.506V542.276L352.198 541.576C352.646 540.512 353.365 539.681 354.354 539.084C355.362 538.468 356.548 538.16 357.91 538.16C359.348 538.16 360.57 538.524 361.578 539.252C362.586 539.961 363.24 541.035 363.538 542.472L362.754 542.164C363.184 540.969 363.94 540.008 365.022 539.28C366.124 538.533 367.44 538.16 368.97 538.16ZM392.141 553.14C390.611 553.14 389.267 552.823 388.109 552.188C386.952 551.535 386.047 550.648 385.393 549.528C384.74 548.389 384.413 547.092 384.413 545.636C384.413 544.18 384.721 542.892 385.337 541.772C385.972 540.652 386.831 539.775 387.913 539.14C389.015 538.487 390.247 538.16 391.609 538.16C392.991 538.16 394.213 538.477 395.277 539.112C396.36 539.728 397.209 540.605 397.825 541.744C398.441 542.864 398.749 544.161 398.749 545.636C398.749 545.729 398.74 545.832 398.721 545.944C398.721 546.037 398.721 546.14 398.721 546.252H385.925V544.768H397.657L396.873 545.356C396.873 544.292 396.64 543.349 396.173 542.528C395.725 541.688 395.109 541.035 394.325 540.568C393.541 540.101 392.636 539.868 391.609 539.868C390.601 539.868 389.696 540.101 388.893 540.568C388.091 541.035 387.465 541.688 387.017 542.528C386.569 543.368 386.345 544.329 386.345 545.412V545.72C386.345 546.84 386.588 547.829 387.073 548.688C387.577 549.528 388.268 550.191 389.145 550.676C390.041 551.143 391.059 551.376 392.197 551.376C393.093 551.376 393.924 551.217 394.689 550.9C395.473 550.583 396.145 550.097 396.705 549.444L397.825 550.732C397.172 551.516 396.351 552.113 395.361 552.524C394.391 552.935 393.317 553.14 392.141 553.14ZM412.344 553.14C411.131 553.14 409.983 552.972 408.9 552.636C407.817 552.281 406.968 551.843 406.352 551.32L407.248 549.752C407.845 550.2 408.611 550.592 409.544 550.928C410.477 551.245 411.457 551.404 412.484 551.404C413.884 551.404 414.892 551.189 415.508 550.76C416.124 550.312 416.432 549.724 416.432 548.996C416.432 548.455 416.255 548.035 415.9 547.736C415.564 547.419 415.116 547.185 414.556 547.036C413.996 546.868 413.371 546.728 412.68 546.616C411.989 546.504 411.299 546.373 410.608 546.224C409.936 546.075 409.32 545.86 408.76 545.58C408.2 545.281 407.743 544.88 407.388 544.376C407.052 543.872 406.884 543.2 406.884 542.36C406.884 541.557 407.108 540.839 407.556 540.204C408.004 539.569 408.657 539.075 409.516 538.72C410.393 538.347 411.457 538.16 412.708 538.16C413.66 538.16 414.612 538.291 415.564 538.552C416.516 538.795 417.3 539.121 417.916 539.532L417.048 541.128C416.395 540.68 415.695 540.363 414.948 540.176C414.201 539.971 413.455 539.868 412.708 539.868C411.383 539.868 410.403 540.101 409.768 540.568C409.152 541.016 408.844 541.595 408.844 542.304C408.844 542.864 409.012 543.303 409.348 543.62C409.703 543.937 410.16 544.189 410.72 544.376C411.299 544.544 411.924 544.684 412.596 544.796C413.287 544.908 413.968 545.048 414.64 545.216C415.331 545.365 415.956 545.58 416.516 545.86C417.095 546.121 417.552 546.504 417.888 547.008C418.243 547.493 418.42 548.137 418.42 548.94C418.42 549.799 418.177 550.545 417.692 551.18C417.225 551.796 416.535 552.281 415.62 552.636C414.724 552.972 413.632 553.14 412.344 553.14ZM446.588 553L437.908 533.4H440.148L448.268 551.852H447.036L455.212 533.4H457.312L448.632 553H446.588ZM473.427 553V549.752L473.343 549.22V543.788C473.343 542.537 472.989 541.576 472.279 540.904C471.589 540.232 470.553 539.896 469.171 539.896C468.219 539.896 467.314 540.055 466.455 540.372C465.597 540.689 464.869 541.109 464.271 541.632L463.375 540.148C464.122 539.513 465.018 539.028 466.063 538.692C467.109 538.337 468.21 538.16 469.367 538.16C471.271 538.16 472.737 538.636 473.763 539.588C474.809 540.521 475.331 541.949 475.331 543.872V553H473.427ZM468.359 553.14C467.258 553.14 466.297 552.963 465.475 552.608C464.673 552.235 464.057 551.731 463.627 551.096C463.198 550.443 462.983 549.696 462.983 548.856C462.983 548.091 463.161 547.4 463.515 546.784C463.889 546.149 464.486 545.645 465.307 545.272C466.147 544.88 467.267 544.684 468.667 544.684H473.735V546.168H468.723C467.305 546.168 466.315 546.42 465.755 546.924C465.214 547.428 464.943 548.053 464.943 548.8C464.943 549.64 465.27 550.312 465.923 550.816C466.577 551.32 467.491 551.572 468.667 551.572C469.787 551.572 470.749 551.32 471.551 550.816C472.373 550.293 472.97 549.547 473.343 548.576L473.791 549.948C473.418 550.919 472.765 551.693 471.831 552.272C470.917 552.851 469.759 553.14 468.359 553.14ZM486.331 553V532.224H488.319V553H486.331ZM505.527 553.14C504.276 553.14 503.184 552.907 502.251 552.44C501.317 551.973 500.589 551.273 500.067 550.34C499.563 549.407 499.311 548.24 499.311 546.84V538.3H501.299V546.616C501.299 548.184 501.681 549.369 502.447 550.172C503.231 550.956 504.323 551.348 505.723 551.348C506.749 551.348 507.636 551.143 508.383 550.732C509.148 550.303 509.727 549.687 510.119 548.884C510.529 548.081 510.735 547.12 510.735 546V538.3H512.723V553H510.819V548.968L511.127 549.696C510.66 550.779 509.932 551.628 508.943 552.244C507.972 552.841 506.833 553.14 505.527 553.14ZM530.107 553.14C528.576 553.14 527.232 552.823 526.075 552.188C524.918 551.535 524.012 550.648 523.359 549.528C522.706 548.389 522.379 547.092 522.379 545.636C522.379 544.18 522.687 542.892 523.303 541.772C523.938 540.652 524.796 539.775 525.879 539.14C526.98 538.487 528.212 538.16 529.575 538.16C530.956 538.16 532.179 538.477 533.243 539.112C534.326 539.728 535.175 540.605 535.791 541.744C536.407 542.864 536.715 544.161 536.715 545.636C536.715 545.729 536.706 545.832 536.687 545.944C536.687 546.037 536.687 546.14 536.687 546.252H523.891V544.768H535.623L534.839 545.356C534.839 544.292 534.606 543.349 534.139 542.528C533.691 541.688 533.075 541.035 532.291 540.568C531.507 540.101 530.602 539.868 529.575 539.868C528.567 539.868 527.662 540.101 526.859 540.568C526.056 541.035 525.431 541.688 524.983 542.528C524.535 543.368 524.311 544.329 524.311 545.412V545.72C524.311 546.84 524.554 547.829 525.039 548.688C525.543 549.528 526.234 550.191 527.111 550.676C528.007 551.143 529.024 551.376 530.163 551.376C531.059 551.376 531.89 551.217 532.655 550.9C533.439 550.583 534.111 550.097 534.671 549.444L535.791 550.732C535.138 551.516 534.316 552.113 533.327 552.524C532.356 552.935 531.283 553.14 530.107 553.14Z" fill="#4B5563"/>
<path d="M409.551 2.0936L274.292 216.215L240.337 162.812L409.551 2.0936Z" fill="#D4AF37" stroke="#D4AF37" stroke-width="5"/>
<path d="M103.776 316.654L239.772 103L273.542 156.52L103.776 316.654Z" fill="#D4AF37" stroke="#D4AF37" stroke-width="5"/>
</svg>
